<?xml version="1.0" standalone="no"?>
<!DOCTYPE svg PUBLIC "-//W3C//DTD SVG 20010904//EN"
 "http://www.w3.org/TR/2001/REC-SVG-20010904/DTD/svg10.dtd">
<svg version="1.0" xmlns="http://www.w3.org/2000/svg"
 width="1024.000000pt" height="1024.000000pt" viewBox="0 0 1024.000000 1024.000000"
 preserveAspectRatio="xMidYMid meet">
<metadata>
Created by potrace 1.14, written by Peter Selinger 2001-2017
</metadata>
<g transform="translate(0.000000,1024.000000) scale(0.100000,-0.100000)"
fill="#000000" stroke="none">
<path d="M0 5120 l0 -5120 5120 0 5120 0 0 5120 0 5120 -5120 0 -5120 0 0
-5120z m2025 1385 c205 -43 345 -114 471 -239 67 -67 89 -97 127 -176 66 -136
82 -214 81 -390 -1 -124 -5 -159 -27 -243 -15 -53 -47 -140 -71 -192 -102
-218 -238 -387 -710 -885 l-355 -375 632 -5 632 -5 3 -237 2 -238 -1020 0
-1020 0 0 203 0 203 500 533 c274 292 528 567 563 609 205 245 281 399 279
567 -1 132 -30 225 -97 303 -72 83 -165 117 -308 110 -81 -3 -103 -8 -160 -36
-78 -39 -152 -114 -190 -197 -24 -49 -34 -93 -53 -232 l-5 -33 -296 0 -296 0
7 77 c43 476 357 810 832 888 115 19 368 14 479 -10z m2225 0 c428 -95 672
-414 742 -971 17 -133 16 -911 0 -1049 -63 -514 -273 -833 -627 -953 -238 -80
-584 -65 -806 36 -312 141 -503 464 -550 929 -7 65 -9 286 -7 576 4 436 6 481
27 587 96 501 347 782 764 855 105 18 352 13 457 -10z m4395 15 c247 -34 400
-105 550 -255 74 -74 99 -106 132 -175 23 -47 49 -112 58 -145 22 -82 31 -297
16 -377 -38 -199 -152 -367 -322 -476 -32 -20 -59 -40 -59 -44 0 -4 22 -19 49
-32 75 -39 192 -138 250 -213 110 -142 153 -274 153 -473 1 -458 -282 -763
-774 -836 -136 -20 -391 -15 -508 10 -319 69 -541 229 -650 469 -43 96 -60
171 -66 302 -13 252 54 435 220 600 75 75 124 113 207 158 l33 18 -54 32 c-79
45 -198 164 -246 244 -102 171 -128 385 -73 601 82 324 350 543 721 591 90 12
281 12 363 1z m-1655 -955 l0 -925 165 0 165 0 0 -240 0 -240 -165 0 -165 0 0
-320 0 -320 -300 0 -300 0 0 320 0 320 -605 0 -604 0 -5 33 c-3 17 -10 101
-16 185 l-10 154 577 911 c317 502 596 942 620 980 l43 67 300 0 300 0 0 -925z"/>
<path d="M3897 6039 c-166 -39 -264 -190 -297 -459 -13 -111 -13 -1019 0
-1130 31 -246 109 -398 238 -462 41 -20 62 -23 162 -23 96 0 122 3 161 21 131
61 200 180 234 409 21 144 22 1075 0 1218 -36 242 -126 377 -279 422 -54 16
-159 18 -219 4z"/>
<path d="M8360 6038 c-64 -21 -139 -76 -171 -126 -44 -69 -59 -132 -59 -241 1
-225 117 -373 305 -389 243 -19 396 146 383 413 -6 112 -33 186 -92 252 -66
74 -121 97 -236 100 -52 1 -111 -3 -130 -9z"/>
<path d="M8355 4787 c-73 -20 -127 -50 -180 -104 -90 -89 -129 -226 -107 -374
22 -150 91 -253 210 -311 65 -32 70 -33 193 -33 l126 0 79 40 c141 72 204 185
204 364 0 146 -36 240 -126 327 -70 69 -139 95 -259 100 -54 2 -110 -2 -140
-9z"/>
<path d="M6067 5156 c-174 -277 -317 -506 -317 -510 0 -3 144 -6 320 -6 l320
0 0 510 c0 281 -1 510 -3 510 -1 0 -145 -227 -320 -504z"/>
</g>
</svg>
